Coordinates
version=1
nRows=19
nColumns=24
inDegrees=yes

Units are S.I. units (second, meters, Newtons, ...)
Angles are in degrees.

endheader
time	pelvis_tilt	pelvis_list	pelvis_rotation	pelvis_tx	pelvis_ty	pelvis_tz	hip_flexion_r	hip_adduction_r	hip_rotation_r	knee_angle_r	ankle_angle_r	subtalar_angle_r	mtp_angle_r	hip_flexion_l	hip_adduction_l	hip_rotation_l	knee_angle_l	ankle_angle_l	subtalar_angle_l	mtp_angle_l	lumbar_extension	lumbar_bending	lumbar_rotation
      1.15433333	      4.89613648	      5.30898099	     -3.97568120	      0.16847862	      0.91617844	      0.31483549	     11.38220891	     -9.66230330	     -7.39580027	    -77.01194126	     -2.29366746	      2.69705936	      3.97206836	      3.67619631	      9.36679246	     -3.23630608	    -17.92230463	     11.17620892	     -7.26657162	      4.73430365	    -14.08321009	     -8.64658531	      1.03717691
      1.15850000	      4.84467726	      5.08417261	     -3.84182916	      0.17342456	      0.91715567	      0.31447892	     12.11402392	     -9.30973793	     -7.48441811	    -77.01788839	     -2.06567559	      2.53124130	      3.93134175	      3.09859369	      9.19773501	     -2.88936384	    -17.39955680	     11.13523226	     -7.48477639	      4.71517138	    -14.10121522	     -8.34791403	      0.76029022
      1.16266667	      4.78566478	      4.87759918	     -3.74840395	      0.17842111	      0.91806312	      0.31419990	     12.85287288	     -8.96275755	     -7.51734046	    -76.97699415	     -1.76154329	      2.46350877	      3.92908867	      2.54146679	      9.01688290	     -2.74327642	    -16.89673901	     11.16199844	     -7.39554457	      4.71232464	    -14.05934400	     -8.09396726	      0.69644447
      1.16683333	      4.73329533	      4.62565493	     -3.61032132	      0.18337018	      0.91899423	      0.31385809	     13.54400628	     -8.56461649	     -7.60150463	    -76.83751001	     -1.46485752	      2.40364830	      3.91646919	      1.98941141	      8.79174985	     -2.51571730	    -16.42256942	     11.14475597	     -7.42716999	      4.70244156	    -14.07911717	     -7.74968375	      0.55483187
      1.17100000	      4.68100767	      4.38990786	     -3.47592714	      0.18835049	      0.91989871	      0.31354086	     14.21979956	     -8.18096346	     -7.67452694	    -76.63326220	     -1.19052945	      2.37693193	      3.90347187	      1.42023095	      8.58063491	     -2.28907169	    -15.90665117	     11.13680528	     -7.44634825	      4.69179138	    -14.06574968	     -7.44821355	      0.40085794
      1.17516667	      4.65007146	      4.16603151	     -3.33142778	      0.19332823	      0.92080575	      0.31317798	     14.85219323	     -7.82714874	     -7.76991559	    -76.36050509	     -0.93902211	      2.37551985	      3.86893908	      0.80994814	      8.39351860	     -1.98181562	    -15.34754953	     11.10955162	     -7.56922371	      4.66699825	    -14.07992978	     -7.15953485	      0.15153437
      1.17933333	      4.59695974	      3.92157276	     -3.18778516	      0.19828443	      0.92164949	      0.31285820	     15.49172134	     -7.43238153	     -7.85053018	    -76.01972276	     -0.66021369	      2.41158724	      3.84839962	      0.25194546	      8.16325271	     -1.76768911	    -14.84273159	     11.10264574	     -7.56933131	      4.64889969	    -14.06673322	     -6.85034130	      0.01997338
      1.18350000	      4.53205400	      3.67825918	     -3.04426022	      0.20322505	      0.92243814	      0.31254881	     16.13092202	     -7.03675856	     -7.92990547	    -75.61987283	     -0.36323154	      2.44909368	      3.84234582	     -0.27604729	      7.92421773	     -1.60418796	    -14.36531059	     11.07522182	     -7.51985048	      4.63959617	    -14.04552736	     -6.53469219	     -0.08437715
      1.18766667	      4.49137862	      3.42749127	     -2.88697395	      0.20815074	      0.92323610	      0.31222285	     16.71768148	     -6.63741830	     -8.02156452	    -75.14533445	     -0.08243601	      2.51512852	      3.83402902	     -0.83788508	      7.67880503	     -1.39602311	    -13.86791599	     11.06299531	     -7.50491528	      4.62907552	    -14.05666597	     -6.20885820	     -0.23702500
      1.19183333	      4.48606249	      3.19256619	     -2.72292263	      0.21309437	      0.92404385	      0.31187480	     17.24367891	     -6.27366663	     -8.13340899	    -74.60802992	      0.17514645	      2.59561014	      3.81375787	     -1.45928351	      7.45654571	     -1.13487446	    -13.32288052	     11.05662321	     -7.55930461	      4.61058867	    -14.09957257	     -5.90415083	     -0.47403935
      1.19600000	      4.42279457	      2.95193128	     -2.56775083	      0.21797859	      0.92471838	      0.31157824	     17.82975022	     -5.88242776	     -8.21557060	    -74.02003534	      0.47458061	      2.68259813	      3.80676348	     -1.97399953	      7.20862181	     -0.97703340	    -12.85235555	     11.01313476	     -7.52317021	      4.60046461	    -14.08296111	     -5.59537383	     -0.59323755
      1.20016667	      4.42984644	      2.72003080	     -2.40340321	      0.22289637	      0.92545647	      0.31125257	     18.30797163	     -5.52466821	     -8.32714593	    -73.36196743	      0.73884219	      2.77572974	      3.78390027	     -2.59947786	      6.97953314	     -0.73822728	    -12.31367161	     11.00305547	     -7.56053344	      4.58245348	    -14.14279730	     -5.29292767	     -0.82064235
      1.20433333	      4.37892582	      2.48192407	     -2.24048047	      0.22775273	      0.92605943	      0.31097601	     18.84337621	     -5.14180856	     -8.41727592	    -72.65114633	      1.03010458	      2.87450815	      3.77437956	     -3.11751732	      6.72605924	     -0.58240461	    -11.85312406	     10.97062620	     -7.52034351	      4.57279501	    -14.14103863	     -4.98974797	     -0.94881165
      1.20850000	      4.39275364	      2.25896905	     -2.07435388	      0.23264215	      0.92671040	      0.31067175	     19.28061614	     -4.79841759	     -8.52911452	    -71.87693114	      1.29430605	      2.95816079	      3.74741483	     -3.73869953	      6.49625755	     -0.37140344	    -11.32402738	     10.95144971	     -7.54195325	      4.55537188	    -14.20392481	     -4.69825976	     -1.18374698
      1.21266667	      4.36950148	      2.02663759	     -1.90641371	      0.23747375	      0.92725569	      0.31040826	     19.74864654	     -4.43376136	     -8.62984345	    -71.05044246	      1.56400802	      3.05472759	      3.72998643	     -4.28488444	      6.24265970	     -0.21062852	    -10.85524750	     10.94185526	     -7.51088909	      4.54499584	    -14.24021750	     -4.40383027	     -1.33802070
      1.21683333	      4.37208640	      1.81336822	     -1.74408450	      0.24232484	      0.92778192	      0.31014401	     20.16867598	     -4.09882771	     -8.73155151	    -70.16792733	      1.82319542	      3.12295600	      3.70757995	     -4.86958730	      6.01062841	     -0.04867633	    -10.36224140	     10.93349261	     -7.48209119	      4.53482465	    -14.29294311	     -4.12184516	     -1.52967218
      1.22100000	      4.34279968	      1.59544726	     -1.57989537	      0.24713460	      0.92821122	      0.30991381	     20.60945579	     -3.75195347	     -8.82517668	    -69.22946035	      2.09736576	      3.19470898	      3.69491593	     -5.38771526	      5.76310667	      0.06429744	     -9.92613218	     10.91094688	     -7.42756985	      4.52935082	    -14.31400752	     -3.84440394	     -1.66831815
      1.22516667	      4.37002080	      1.39742245	     -1.42041833	      0.25196250	      0.92865673	      0.30968389	     20.96885704	     -3.43892454	     -8.92305923	    -68.24151376	      2.33200342	      3.22102868	      3.66864983	     -5.99635469	      5.54093859	      0.22338123	     -9.42966862	     10.91931375	     -7.39413773	      4.52351015	    -14.40024941	     -3.58751256	     -1.89227748
      1.22933333	      4.34556063	      1.19644475	     -1.25810251	      0.25675626	      0.92897847	      0.30948079	     21.36930341	     -3.11369879	     -9.00889290	    -67.19788812	      2.59032862	      3.25984613	      3.65450963	     -6.50879610	      5.30517194	      0.31905933	     -9.00737428	     10.90537288	     -7.32967352	      4.52150551	    -14.42409181	     -3.33285927	     -2.03382446
